# xmcd
#
# Track frame offsets:
#	150
#	17925
#	35537
#	53715
#	67742
#	89857
#	109315
#	127245
#	149242
#	171085
#	182690
#
# Disc length: 2630 seconds
#
# Revision: 0
# Processed by: cddbd v1.5.1PL0 Copyright (c) Steve Scherf et al.
# Submitted via: dBpowerAMP V4.0
#
DISCID=a80a440b
DTITLE=David Vidal - Everybody Loves Me But You...
DYEAR=1900
DGENRE=Blues
TTITLE0=Everybody Loves Me But You
TTITLE1=Natural Thing
TTITLE2=Hey, Dixie
TTITLE3=Jacaranda
TTITLE4=Cheryl Ann
TTITLE5=Bump City
TTITLE6=Gravedigger Hill
TTITLE7=Shady Side Of Town
TTITLE8=I Wish It Would Rain
TTITLE9=Hoodoo Girl
TTITLE10=The Women Like My Style
EXTD=
EXTT0=
EXTT1=
EXTT2=
EXTT3=
EXTT4=
EXTT5=
EXTT6=
EXTT7=
EXTT8=
EXTT9=
EXTT10=
PLAYORDER=
